<svg xmlns="http://www.w3.org/2000/svg" xmlns:xlink="http://www.w3.org/1999/xlink" width="202" height="161" viewBox="0 0 202 161"><defs><path id="yy9ba" d="M868 1198a37 37 0 0 1 37-37h44a37 37 0 1 1 0 74h-44a37 37 0 0 1-37-37z"/><path id="yy9bf" d="M943 1198l-33 12v-24z"/><mask id="yy9bc" width="2" height="2" x="-1" y="-1"><path fill="#fff" d="M868 1161h118v74H868z"/><use xlink:href="#yy9ba"/></mask><filter id="yy9bb" width="192" height="156" x="831" y="1124" filterUnits="userSpaceOnUse"><feOffset dy="8" in="SourceGraphic" result="FeOffset1079Out"/><feGaussianBlur in="FeOffset1079Out" result="FeGaussianBlur1080Out" stdDeviation="10.8 10.8"/></filter><mask id="yy9be" width="2" height="2" x="-1" y="-1"><path fill="#fff" d="M868 1161h118v74H868z"/><use xlink:href="#yy9ba"/></mask><filter id="yy9bd" width="246" height="222" x="804" y="1097" filterUnits="userSpaceOnUse"><feOffset dy="20" in="SourceGraphic" result="FeOffset1090Out"/><feGaussianBlur in="FeOffset1090Out" result="FeGaussianBlur1091Out" stdDeviation="21.6 21.6"/></filter></defs><g><g transform="translate(-827 -1138)"><g filter="url(#yy9bb)"><use fill="none" stroke-opacity=".45" stroke-width="0" mask="url(&quot;#yy9bc&quot;)" xlink:href="#yy9ba"/><use fill="#db1623" fill-opacity=".45" xlink:href="#yy9ba"/></g><g filter="url(#yy9bd)"><use fill="none" stroke-opacity=".25" stroke-width="0" mask="url(&quot;#yy9be&quot;)" xlink:href="#yy9ba"/><use fill="#db1623" fill-opacity=".25" xlink:href="#yy9ba"/></g><use fill="#db1623" xlink:href="#yy9ba"/></g><g transform="translate(-827 -1138)"><use fill="#fff" xlink:href="#yy9bf"/></g></g></svg>